<svg width="454" height="29" viewBox="0 0 454 29" fill="none" xmlns="http://www.w3.org/2000/svg">
<path opacity="0.2" d="M453.5 0.0828852V27.5829H0V5.26289C5.78742 7.26416 11.8767 8.25198 18 8.18289C22.64 8.13289 27.12 6.65289 31.81 4.96289C38.81 2.44289 46.29 -0.537115 55.5 0.0828852C64.71 0.702885 74.72 8.5029 84.95 10.1729C86.2543 10.3986 87.5764 10.5057 88.9 10.4929C91.1125 10.4361 93.3108 10.1206 95.45 9.55289C99.6848 8.3661 103.851 6.94729 107.93 5.30289C114.73 2.79289 122.29 0.302885 131.22 0.0828852C141.22 -0.127115 150.46 3.70289 159.16 7.21289C160.99 7.95289 162.79 8.67289 164.57 9.34289C168.299 10.8404 172.183 11.917 176.15 12.5529C177.181 12.6954 178.219 12.7788 179.26 12.8029C189.36 12.9622 199.413 11.3859 208.98 8.1429C216.25 5.7229 220.75 3.30289 221.48 3.48289C222.21 3.30289 226.71 5.7229 233.98 8.1429C237.488 9.33472 241.068 10.3 244.7 11.0329C250.95 12.3121 257.321 12.9056 263.7 12.8029C264.751 12.7804 265.8 12.6936 266.84 12.5429C270.794 11.9117 274.665 10.8383 278.38 9.34289C280.17 8.67289 281.98 7.9529 283.82 7.2029C292.51 3.7029 301.74 -0.127115 311.74 0.0828852C320.67 0.272885 328.22 2.79289 335.01 5.30289C339.088 6.94278 343.251 8.3648 347.48 9.5629C349.627 10.1261 351.831 10.4382 354.05 10.4929C355.39 10.5083 356.729 10.4012 358.05 10.1729V10.1729C368.28 8.5029 378.29 0.702885 387.5 0.0828852C396.71 -0.537115 404.19 2.44289 411.18 4.96289C415.88 6.65289 420.35 8.13289 424.98 8.18289C432.377 8.26324 439.709 6.80223 446.51 3.8929C447.88 3.3029 449.07 2.7229 450.06 2.2029C451.251 1.57084 452.4 0.862699 453.5 0.0828852V0.0828852Z" fill="#9FC5B2"/>
<path opacity="0.4" d="M453.53 20.1935V28.0335H0V10.7735C2.35018 9.50592 4.81857 8.47101 7.37 7.68346C13.6663 5.80755 20.2234 4.95667 26.79 5.16346C28.55 5.16346 30.21 5.27346 31.79 5.41346C38.3634 5.90981 44.7965 7.56886 50.79 10.3135C56.79 12.9235 61.38 15.5535 68.32 15.5635H68.79C70.8236 15.479 72.8389 15.1431 74.79 14.5635C78.2538 13.4809 81.6414 12.168 84.93 10.6335C84.93 10.6335 84.93 10.6335 84.93 10.6335L85.52 10.3635C91.65 7.66346 97.84 4.95346 103.76 5.16346C105.16 5.21873 106.551 5.41983 107.91 5.76346C112.34 6.81346 116.64 9.11346 120.91 11.3235C126.19 14.0635 131.46 16.6935 136.91 16.7335C140.312 16.6038 143.639 15.69 146.63 14.0635C150.48 12.2135 154.5 9.71345 159.12 7.67345C163.995 5.414 169.279 4.16881 174.65 4.01346C186.81 3.73346 193.03 7.87346 198.25 11.4935C200.349 13.0893 202.611 14.457 205 15.5735C206.68 16.2735 208.2 16.8935 209.6 17.4335C213.442 19.045 217.404 20.3523 221.45 21.3435C225.496 20.3507 229.458 19.0433 233.3 17.4335C234.693 16.8935 236.227 16.2735 237.9 15.5735C240.291 14.4549 242.556 13.0874 244.66 11.4935C249.87 7.87346 256.1 3.74346 268.26 4.01346C273.625 4.18257 278.902 5.4236 283.78 7.66346C288.4 9.71346 292.42 12.2135 296.28 14.0635C299.271 15.691 302.597 16.6048 306 16.7335C311.47 16.7335 316.74 14.0735 322 11.3235C326.26 9.11346 330.54 6.83346 334.94 5.76346C336.317 5.42723 337.724 5.22957 339.14 5.17345C345.04 4.95345 351.24 7.66347 357.37 10.3735L357.94 10.6335C361.235 12.179 364.633 13.4954 368.11 14.5735C370.059 15.1626 372.075 15.4987 374.11 15.5735H374.54C381.48 15.5735 386.09 12.9335 392.07 10.3135C398.068 7.58016 404.499 5.92164 411.07 5.41346C412.64 5.28346 414.31 5.19346 416.07 5.16346C422.633 4.95653 429.187 5.80742 435.48 7.68346C439.371 8.8642 443.055 10.642 446.4 12.9535C447.03 13.3935 447.6 13.8335 448.14 14.2735C448.68 14.7135 449.41 15.3535 449.95 15.8635C451.311 17.1214 452.495 18.5578 453.47 20.1335V20.1335L453.53 20.1935Z" fill="#B0D1C0"/>
<path opacity="0.6" d="M453.53 11.2175V28.3175H0V16.6375C6.20553 18.6162 12.6113 19.9007 19.1 20.4675C24.63 21.0175 30.89 18.1475 37.45 15.2875C38.61 14.7775 39.78 14.2875 40.96 13.7775C44.108 12.3873 47.3833 11.3056 50.74 10.5475C52.7435 10.1184 54.7926 9.94038 56.84 10.0175C62.42 10.2775 67.93 12.2775 73.52 14.3475L74.73 14.7975C80.73 17.0475 86.94 19.2375 93.43 19.2675C98.95 19.2675 104.51 17.4375 110.05 15.3875L112.05 14.6375C115.05 13.5175 117.96 12.4075 120.9 11.5475C124.229 10.4867 127.707 9.97006 131.2 10.0175C135.27 10.1675 140.81 12.0175 146.64 14.2875L147.07 14.4575C156.4 18.0975 166.41 22.6475 172.38 22.7375C180.408 22.971 188.44 22.4824 196.38 21.2775C200.905 20.5377 205.339 19.3244 209.61 17.6575C213.88 16.0575 216.87 14.6575 221.38 14.6575H221.55C226.04 14.6575 229.05 16.0675 233.31 17.6575C237.584 19.3243 242.022 20.5376 246.55 21.2775C254.49 22.4824 262.522 22.971 270.55 22.7375C276.55 22.6475 286.55 18.0975 295.85 14.4575L296.29 14.2875C302.11 12.0275 307.65 10.1675 311.73 10.0175C315.213 9.97502 318.681 10.4916 322 11.5475C324.93 12.4075 327.88 13.5475 330.84 14.6375L332.84 15.3775C338.37 17.3775 343.91 19.2875 349.44 19.2675C355.92 19.2675 362.08 17.0475 368.13 14.7975L369.35 14.3475C374.94 12.2775 380.44 10.2775 386.04 10.0175C388.084 9.94079 390.13 10.1188 392.13 10.5475C395.493 11.2875 398.776 12.3559 401.93 13.7375C403.11 14.2275 404.28 14.7375 405.44 15.2475C412 18.1075 418.26 20.9775 423.78 20.4275C434.57 19.3375 441.78 17.2175 446.42 15.2775L447.16 14.9675L448.16 14.5075C448.84 14.1875 449.44 13.8775 449.97 13.5775C451.236 12.9351 452.418 12.1391 453.49 11.2075L453.53 11.2175Z" fill="#9FC5B2"/>
<path d="M453.53 20.5701V28.4101H0V12.8101C6.01405 10.1679 12.5326 8.87101 19.1 9.01012C25.96 9.01012 33.2 11.6301 40.96 13.8801C47.4 15.7601 54.2 17.3901 61.42 17.1001C63.8984 16.9757 66.356 16.5834 68.75 15.9301C70.36 15.5101 71.95 15.0101 73.53 14.4901C77.2503 13.1338 81.0388 11.9722 84.88 11.0101C87.3047 10.4575 89.7832 10.1758 92.27 10.1701C93.3105 10.1709 94.3497 10.2444 95.38 10.3901C100.56 11.1101 104.88 13.3901 110.03 15.5401C115.624 17.9637 121.635 19.2813 127.73 19.4201C133.73 19.5601 140.19 17.1801 146.53 14.8001L147.03 14.6101C153.14 12.3201 159.09 10.0801 164.32 10.1701H164.5C168.547 10.3876 172.499 11.4829 176.08 13.3801C181.53 16.0201 186.47 19.5001 191.77 20.5701C193.36 20.8901 194.88 21.1701 196.34 21.4201C211.58 24.0101 219.61 22.8301 221.34 21.8401L221.42 21.7901L221.51 21.8401C223.22 22.8401 231.26 24.0101 246.51 21.4201C247.97 21.1701 249.51 20.8901 251.07 20.5701C256.37 19.5001 261.31 16.0201 266.77 13.3701C270.34 11.4807 274.277 10.3889 278.31 10.1701H278.52C283.75 10.0801 289.7 12.3101 295.81 14.6101L296.32 14.8001C302.65 17.1801 309.13 19.5601 315.12 19.4201C321.219 19.282 327.234 17.9609 332.83 15.5301C337.96 13.4301 342.27 11.1201 347.41 10.4001C348.456 10.2464 349.512 10.1695 350.57 10.1701C353.05 10.1758 355.522 10.4575 357.94 11.0101C361.796 11.9709 365.598 13.1359 369.33 14.5001C370.93 15.0301 372.53 15.5001 374.15 15.9501C376.534 16.5993 378.982 16.9882 381.45 17.1101C388.67 17.4001 395.45 15.7701 401.91 13.8901C409.66 11.6401 416.91 9.04011 423.75 9.02011C434.23 9.02011 441.61 11.8001 446.4 14.6701L447.14 15.1201C448.114 15.7332 449.052 16.401 449.95 17.1201C451.254 18.1217 452.435 19.2729 453.47 20.5501L453.53 20.5701Z" fill="#9FC5B2"/>
</svg>
